<?xml version="1.0" encoding="iso-8859-1"?>
<!-- Generator: Adobe Illustrator 18.0.0, SVG Export Plug-In . SVG Version: 6.00 Build 0)  -->
<!DOCTYPE svg PUBLIC "-//W3C//DTD SVG 1.1//EN" "http://www.w3.org/Graphics/SVG/1.1/DTD/svg11.dtd">
<svg version="1.1" id="Capa_1" xmlns="http://www.w3.org/2000/svg" xmlns:xlink="http://www.w3.org/1999/xlink" x="0px" y="0px"
	 viewBox="0 0 60 60" style="enable-background:new 0 0 60 60;" xml:space="preserve">
<g>
	<path d="M55.232,43.104C58.353,38.745,60,33.704,60,28.5c0-14.888-13.458-27-30-27S0,13.612,0,28.5s13.458,27,30,27
		c4.262,0,8.378-0.79,12.244-2.348c6.804,3.927,16.212,5.282,16.617,5.338c0.047,0.007,0.093,0.01,0.14,0.01
		c0.375,0,0.724-0.211,0.895-0.554c0.192-0.385,0.116-0.849-0.188-1.153C57.408,54.494,55.823,49.641,55.232,43.104z M42.84,51.182
		C42.84,51.182,42.84,51.182,42.84,51.182c-2.11-1.302-4.467-2.814-5.017-3.249c-0.297-0.432-0.882-0.564-1.337-0.291
		c-0.299,0.18-0.489,0.513-0.492,0.862c-0.003,0.589,0.006,0.77,4.081,3.316C36.865,52.93,33.487,53.5,30,53.5
		c-15.439,0-28-11.215-28-25s12.561-25,28-25s28,11.215,28,25c0,4.897-1.591,9.643-4.601,13.724
		c-0.144,0.195-0.212,0.436-0.192,0.677c0.35,4.174,1.24,9.491,3.441,13.16C53.314,55.383,47.304,53.878,42.84,51.182z"/>
	<path d="M16,21.515h15c0.552,0,1-0.448,1-1s-0.448-1-1-1H16c-0.552,0-1,0.448-1,1S15.448,21.515,16,21.515z"/>
	<path d="M44,27.515H16c-0.552,0-1,0.448-1,1s0.448,1,1,1h28c0.552,0,1-0.448,1-1S44.552,27.515,44,27.515z"/>
	<path d="M44,35.515H16c-0.552,0-1,0.448-1,1s0.448,1,1,1h28c0.552,0,1-0.448,1-1S44.552,35.515,44,35.515z"/>
</g>
<g>
</g>
<g>
</g>
<g>
</g>
<g>
</g>
<g>
</g>
<g>
</g>
<g>
</g>
<g>
</g>
<g>
</g>
<g>
</g>
<g>
</g>
<g>
</g>
<g>
</g>
<g>
</g>
<g>
</g>
</svg>
