<svg xmlns="http://www.w3.org/2000/svg" xmlns:xlink="http://www.w3.org/1999/xlink" version="1.1" id="Capa_1" x="0px" y="0px" width="512px" height="512px" viewBox="0 0 512 512" xml:space="preserve" enable-background="new 0 0 512 512">
  <g>
    <path d="M368 0H144c-26.4 0-48 21.6-48 48v416c0 26.4 21.6 48 48 48h224c26.4 0 48-21.6 48-48V48C416 21.6 394.4 0 368 0zM192 24h128v16H192V24zM256 480c-17.673 0-32-14.327-32-32s14.327-32 32-32 32 14.327 32 32S273.673 480 256 480zM384 384H128V64h256V384z"/>
  </g>
  <g/>
  <g/>
  <g/>
  <g/>
  <g/>
  <g/>
  <g/>
  <g/>
  <g/>
  <g/>
  <g/>
  <g/>
  <g/>
  <g/>
  <g/>
</svg>
